<svg width="128" height="128" viewBox="0 0 128 128" fill="none" xmlns="http://www.w3.org/2000/svg">
<path d="M54.4258 3.57428C59.9188 -1.19144 68.0813 -1.19144 73.5743 3.57428C76.9637 6.5148 81.5164 7.73482 85.9219 6.88287C93.0618 5.50229 100.13 9.58339 102.504 16.4571C103.969 20.6983 107.303 24.0311 111.544 25.4962C118.417 27.8704 122.497 34.9384 121.117 42.0782C120.265 46.4838 121.485 51.0365 124.426 54.4258C129.192 59.9188 129.192 68.0812 124.426 73.5743C121.485 76.9636 120.265 81.5164 121.117 85.9219C122.497 93.0617 118.417 100.13 111.544 102.504C107.302 103.969 103.969 107.302 102.504 111.544C100.13 118.417 93.0617 122.497 85.9219 121.117C81.5163 120.265 76.9637 121.485 73.5743 124.426C68.0813 129.192 59.9188 129.192 54.4258 124.426C51.0364 121.485 46.4838 120.265 42.0782 121.117C34.9384 122.497 27.8706 118.417 25.4962 111.544C24.0312 107.303 20.6984 103.969 16.4571 102.504C9.58347 100.13 5.5023 93.0618 6.88287 85.9219C7.73482 81.5165 6.51484 76.9636 3.57428 73.5743C-1.19144 68.0812 -1.19144 59.9188 3.57428 54.4258C6.5148 51.0365 7.73482 46.4837 6.88287 42.0782C5.5023 34.9383 9.58347 27.8703 16.4571 25.4962C20.6983 24.0311 24.0312 20.6983 25.4962 16.4571C27.8704 9.5834 34.9383 5.50231 42.0782 6.88287C46.4837 7.73481 51.0364 6.51479 54.4258 3.57428ZM68.2276 27.8243C65.6686 26.1148 62.3315 26.1148 59.7725 27.8243C58.0947 28.945 56.0405 29.3534 54.0616 28.96C51.0433 28.36 47.9611 29.637 46.251 32.1954C45.1299 33.8729 43.3881 35.0368 41.4092 35.4307C38.391 36.0314 36.0314 38.391 35.4307 41.4092C35.0368 43.3881 33.8729 45.1299 32.1954 46.251C29.637 47.9611 28.36 51.0433 28.96 54.0616C29.3534 56.0405 28.945 58.0947 27.8243 59.7725C26.1148 62.3315 26.1148 65.6686 27.8243 68.2276C28.945 69.9054 29.3534 71.9596 28.96 73.9385C28.36 76.9568 29.637 80.0391 32.1954 81.7491C33.8729 82.8702 35.0368 84.612 35.4307 86.5909C36.0314 89.6091 38.391 91.9687 41.4092 92.5694C43.3881 92.9633 45.1299 94.1272 46.251 95.8047C47.9611 98.3632 51.0433 99.6401 54.0616 99.0401C56.0405 98.6467 58.0947 99.0552 59.7725 100.176C62.3315 101.885 65.6686 101.885 68.2276 100.176C69.9054 99.0552 71.9596 98.6467 73.9385 99.0401C76.9568 99.6401 80.0391 98.3632 81.7491 95.8047C82.8702 94.1272 84.612 92.9633 86.5909 92.5694C89.6091 91.9687 91.9687 89.6091 92.5694 86.5909C92.9633 84.612 94.1272 82.8702 95.8047 81.7491C98.3632 80.0391 99.6401 76.9568 99.0401 73.9385C98.6467 71.9596 99.0552 69.9054 100.176 68.2276C101.885 65.6686 101.885 62.3315 100.176 59.7725C99.0552 58.0947 98.6467 56.0405 99.0401 54.0616C99.6401 51.0433 98.3632 47.9611 95.8047 46.251C94.1272 45.1299 92.9633 43.3881 92.5694 41.4092C91.9687 38.391 89.6091 36.0314 86.5909 35.4307C84.612 35.0368 82.8702 33.8729 81.7491 32.1954C80.0391 29.637 76.9568 28.36 73.9385 28.96C71.9596 29.3534 69.9054 28.945 68.2276 27.8243Z" fill="url(#paint0_linear_54_21)"/>
<path d="M40.8225 62.3706C45.9598 59.4046 53.2584 62.4284 57.1244 69.1245C60.9904 75.8206 59.9598 83.6533 54.8225 86.6193C49.6852 89.5853 49.9973 82.1675 46.1313 75.4714C42.2653 68.7753 35.6852 65.3366 40.8225 62.3706Z" fill="url(#paint1_linear_54_21)"/>
<path d="M73.3016 86.6192C68.1643 83.6532 67.1337 75.8205 70.9997 69.1244C74.8657 62.4283 82.1643 59.4045 87.3016 62.3705C92.4389 65.3365 85.8589 68.7752 81.9929 75.4713C78.1269 82.1674 78.4389 89.5853 73.3016 86.6192Z" fill="url(#paint2_linear_54_21)"/>
<path d="M78.0001 46.2591C78.0001 52.1912 71.732 57.0001 64.0001 57.0001C56.2681 57.0001 50.0001 52.1912 50.0001 46.2591C50.0001 40.3271 56.2681 44.3063 64.0001 44.3063C71.732 44.3063 78.0001 40.3271 78.0001 46.2591Z" fill="url(#paint3_linear_54_21)"/>
<defs>
<linearGradient id="paint0_linear_54_21" x1="46.817" y1="-4.73195" x2="75.8133" y2="128.974" gradientUnits="userSpaceOnUse">
<stop stop-color="#0FCE2F"/>
<stop offset="0.331731" stop-color="#62CD10"/>
<stop offset="0.620629" stop-color="#61B313"/>
<stop offset="0.83015" stop-color="#20A636"/>
<stop offset="1" stop-color="#17992D"/>
</linearGradient>
<linearGradient id="paint1_linear_54_21" x1="45.0001" y1="76.1245" x2="57.1244" y2="69.1245" gradientUnits="userSpaceOnUse">
<stop stop-color="#F24848"/>
<stop offset="1" stop-color="#E7AC55"/>
</linearGradient>
<linearGradient id="paint2_linear_54_21" x1="83.1241" y1="76.1244" x2="70.9997" y2="69.1244" gradientUnits="userSpaceOnUse">
<stop stop-color="#F24848"/>
<stop offset="1" stop-color="#E7AC55"/>
</linearGradient>
<linearGradient id="paint3_linear_54_21" x1="64.0001" y1="43.0001" x2="64.0001" y2="57.0001" gradientUnits="userSpaceOnUse">
<stop stop-color="#F24848"/>
<stop offset="1" stop-color="#E7AC55"/>
</linearGradient>
</defs>
</svg>
